<svg xmlns="http://www.w3.org/2000/svg" width="857" height="650"><rect width="857" height="650" x="0" y="0" fill="#FFFFFF" id="background"/><g transform="translate(331.5,325)" id="viz"><path fill="#f7e9bd" display="" d="M1.9999419088884698,-147.48644084240786A147.5,147.5,0,0,1,102.41931115063798,106.1439338984042L53.29426223072641,53.8310701480341A75.75,75.75,0,0,0,1.9999419088884498,-75.72359429108653Z"><title>Vol battu</title></path><path fill="#d4debe" display="" d="M99.50352133414805,108.88204278991437A147.5,147.5,0,0,1,-147.32098743296567,-7.264754763649682L-75.69974846665038,-2.7587283457897582A75.75,75.75,0,0,0,50.37847241423646,56.56917903954428Z"><title>Vol battu, Vol plané</title></path><path fill="#bbcbcc" display="" d="M-147.0698326499906,-11.256745724398701A147.5,147.5,0,0,1,-56.15287902219357,-136.39319696201454L-29.735213236109175,-69.66978967818919A75.75,75.75,0,0,0,-75.44859368367527,-6.750719306538846Z"><title>Vol battu, Vol plané, Nage</title></path><path fill="#8a9377" display="" d="M-52.4338811021396,-137.86565240322437A147.5,147.5,0,0,1,-1.9999419088885206,-147.48644084240786L-1.999941908888442,-75.72359429108653A75.75,75.75,0,0,0,-26.016215316055323,-71.14224511939898Z"><title>Vol battu, Nage</title></path><path fill="#f7e9bd" display="" d="M1.9999419088884578,-223.24104177404536A223.25,223.25,0,0,1,129.59980506913837,-181.78133299665654L87.42371930166227,-123.7309310700609A151.5,151.5,0,0,0,1.9999419088884505,-151.48679887158838Z"><title>Laridae</title></path><path fill="#f7e9bd" display="" d="M132.8357790532452,-179.43026027768397A223.25,223.25,0,0,1,211.69683144611523,-70.88733353480772L143.45449116190824,-48.714053059440545A151.5,151.5,0,0,0,90.65969328576915,-121.37985835108832Z"><title>Anatidae</title></path><path fill="#f7e9bd" display="" d="M212.93286352133364,-67.08321796548744A223.25,223.25,0,0,1,218.91207743005276,-43.79571731640642L148.42879944127978,-30.35031295424062A151.5,151.5,0,0,0,144.69052323712665,-44.90993749012029Z"><title>Sulidae</title></path><path fill="#f7e9bd" display="" d="M219.66158091801796,-39.86668243780817A223.25,223.25,0,0,1,222.92610396415716,12.021425512882947L151.3134516693705,7.515939322605118A151.5,151.5,0,0,0,149.17830292924498,-26.42127807564238Z"><title>Alcidae</title></path><path fill="#f7e9bd" display="" d="M222.67494918118206,16.013416473632013A223.25,223.25,0,0,1,219.66158091801796,39.86668243780817L149.17830292924498,26.42127807564238A151.5,151.5,0,0,0,151.0622968863954,11.507930283354183Z"><title>Hydrobatidae</title></path><path fill="#f7e9bd" display="" d="M218.91207743005276,43.79571731640642A223.25,223.25,0,0,1,189.5602681511723,117.92992511850268L128.9761570953731,79.48207911793475A151.5,151.5,0,0,0,148.42879944127978,30.35031295424062Z"><title>Procellariidae</title></path><path fill="#f7e9bd" display="" d="M187.41702322480455,121.30713872461533A223.25,223.25,0,0,1,154.27690397917326,161.36666136039673L105.15774466219217,109.0600694001301A151.5,151.5,0,0,0,126.83291216900534,82.8592927240474Z"><title>Gaviidae</title></path><path fill="#d4debe" display="" d="M151.36111416268326,164.10477025190696A223.25,223.25,0,0,1,132.83577905324515,179.43026027768403L90.65969328576911,121.37985835108836A151.5,151.5,0,0,0,102.24195484570217,111.79817829164033Z"><title>Procellariidae</title></path><path fill="#d4debe" display="" d="M129.5998050691383,181.7813329966566A223.25,223.25,0,0,1,-211.69683144611528,70.88733353480758L-143.4544911619083,48.71405305944046A151.5,151.5,0,0,0,87.42371930166223,123.73093107006095Z"><title>Anatidae</title></path><path fill="#d4debe" display="" d="M-212.93286352133373,67.08321796548724A223.25,223.25,0,0,1,-222.92610396415716,-12.021425512882974L-151.3134516693705,-7.515939322605142A151.5,151.5,0,0,0,-144.69052323712668,44.90993749012016Z"><title>Laridae</title></path><path fill="#bbcbcc" display="" d="M-222.67494918118206,-16.013416473632127A223.25,223.25,0,0,1,-202.84606766699085,-93.241811072279L-137.92088755962988,-62.690340362482736A151.5,151.5,0,0,0,-151.0622968863954,-11.507930283354256Z"><title>Anatidae</title></path><path fill="#bbcbcc" display="" d="M-201.14299996871515,-96.86101415732468A223.25,223.25,0,0,1,-132.8357790532452,-179.43026027768397L-90.65969328576912,-121.37985835108833A151.5,151.5,0,0,0,-136.2178198613542,-66.30954344752837Z"><title>Podicipedidae</title></path><path fill="#bbcbcc" display="" d="M-129.59980506913843,-181.78133299665652A223.25,223.25,0,0,1,-84.04000760395881,-206.82804360609938L-57.625509032264134,-140.11263579268092A151.5,151.5,0,0,0,-87.42371930166233,-123.73093107006086Z"><title>Phalacrocoracidae</title></path><path fill="#8a9377" display="" d="M-80.32100968390502,-208.30049904730913A223.25,223.25,0,0,1,-29.963693399388227,-221.23006029440813L-20.97050211446475,-150.04162102919054A151.5,151.5,0,0,0,-53.90651111221032,-141.58509123389067Z"><title>Laridae</title></path><path fill="#8a9377" display="" d="M-25.995349860221992,-221.73137866717164A223.25,223.25,0,0,1,-1.9999419088884356,-223.24104177404536L-1.9999419088884356,-151.48679887158838A151.5,151.5,0,0,0,-17.00215857529849,-150.54293940195404Z"><title>Alcidae</title></path><path fill="#f7e9bd" display="" d="M1.9999419088884622,-298.9933113505402A299,299,0,0,1,35.489626756078835,-296.88631897194966L26.496702557863877,-225.69999391572895A227.25,227.25,0,0,0,1.9999419088884414,-227.24119946075155Z"><title>Goéland brun</title></path><path fill="#f7e9bd" display="" d="M39.45797029524516,-296.3850005991861A299,299,0,0,1,72.41950280662734,-290.09725199188097L54.575478196915775,-220.59936464001427A227.25,227.25,0,0,0,30.46504609703017,-225.19867554296545Z"><title>Sterne pierregarin</title></path><path fill="#f7e9bd" display="" d="M76.29372291899692,-289.10252133656553A299,299,0,0,1,108.20728003660136,-278.733178052202L81.79356594299196,-212.01975160425368A227.25,227.25,0,0,0,58.44969830928534,-219.6046339846988Z"><title>Mouette mélanocéphale</title></path><path fill="#f7e9bd" display="" d="M111.92627795665524,-277.2607226109922A299,299,0,0,1,142.28856382050222,-262.9733153875101L107.7217202930392,-200.09646043123357A227.25,227.25,0,0,0,85.5125638630458,-210.54729616304388Z"><title>Sterne arctique</title></path><path fill="#f7e9bd" display="" d="M145.79368872941947,-261.0463566623161A299,299,0,0,1,174.12587195388585,-243.06620644651318L131.95103876422863,-185.01752854538145A227.25,227.25,0,0,0,111.2268452019564,-198.1695017060396Z"><title>Sterne de Dougall</title></path><path fill="#f7e9bd" display="" d="M177.36184593799265,-240.71513372754058A299,299,0,0,1,203.21711106880267,-219.32579822914113L154.0994105303764,-167.02075971025434A227.25,227.25,0,0,0,135.1870127483355,-182.66645582640885Z"><title>Bernache cravant</title></path><path fill="#f7e9bd" display="" d="M206.13290088529263,-216.58768933763096A299,299,0,0,1,229.10349494614664,-192.1264911548144L173.81754253793432,-146.3899737211309A227.25,227.25,0,0,0,157.01520034686635,-164.28265081874417Z"><title>Canard pilet</title></path><path fill="#f7e9bd" display="" d="M231.65311684780517,-189.0445277036527A299,299,0,0,1,251.3767798483958,-161.89723454417356L190.7944680661021,-123.45053039729375A227.25,227.25,0,0,0,176.3671644395929,-143.30801026996923Z"><title>Harelde de Miquelon</title></path><path fill="#f7e9bd" display="" d="M253.52002477476358,-158.52002093806092A299,299,0,0,1,269.6857027672263,-129.11476183205104L204.76245085777683,-98.564198463319A227.25,227.25,0,0,0,192.93771299246987,-120.0733167911811Z"><title>Canard chipeau</title></path><path fill="#f7e9bd" display="" d="M271.388770465502,-125.49555874700545A299,299,0,0,1,283.7415210509877,-94.29607219641697L215.5012074802653,-72.12345024017955A227.25,227.25,0,0,0,206.46551855605247,-94.94499537827339Z"><title>Canard siffleur</title></path><path fill="#f7e9bd" display="" d="M284.97755312620615,-90.49195662709666A299,299,0,0,1,293.3225660488064,-57.99027717250222L222.8413813266086,-44.545272122291614A227.25,227.25,0,0,0,216.7372395554837,-68.31933467085923Z"><title>Fou de Bassan</title></path><path fill="#f7e9bd" display="" d="M294.07206953677155,-54.06124229390397A299,299,0,0,1,298.27773895762766,-20.76994083586473L226.66721347044262,-16.26458845297947A227.25,227.25,0,0,0,223.5908848145738,-40.61623724369337Z"><title>Guillemot de Troïl</title></path><path fill="#f7e9bd" display="" d="M298.52889374060277,-16.777949875115663A299,299,0,0,1,298.52889374060277,16.777949875115663L226.91836825341773,12.272597492230403A227.25,227.25,0,0,0,226.91836825341773,-12.272597492230403Z"><title>Macareux moine</title></path><path fill="#f7e9bd" display="" d="M298.27773895762766,20.76994083586473A299,299,0,0,1,294.07206953677155,54.06124229390397L223.5908848145738,40.61623724369337A227.25,227.25,0,0,0,226.66721347044262,16.26458845297947Z"><title>Pétrel tempête</title></path><path fill="#f7e9bd" display="" d="M293.3225660488064,57.99027717250222A299,299,0,0,1,284.97755312620615,90.49195662709666L216.7372395554837,68.31933467085923A227.25,227.25,0,0,0,222.8413813266086,44.545272122291614Z"><title>Pétrel fulmar</title></path><path fill="#f7e9bd" display="" d="M283.7415210509878,94.2960721964169A299,299,0,0,1,271.388770465502,125.49555874700545L206.46551855605247,94.94499537827339A227.25,227.25,0,0,0,215.5012074802653,72.1234502401795Z"><title>Puffin des Baléares</title></path><path fill="#f7e9bd" display="" d="M269.6857027672263,129.11476183205104A299,299,0,0,1,253.52002477476353,158.52002093806095L192.9377129924698,120.07331679118113A227.25,227.25,0,0,0,204.76245085777683,98.564198463319Z"><title>Puffin yelkouan</title></path><path fill="#f7e9bd" display="" d="M251.37677984839587,161.8972345441735A299,299,0,0,1,231.65311684780528,189.04452770365262L176.36716443959295,143.30801026996912A227.25,227.25,0,0,0,190.79446806610213,123.45053039729369Z"><title>Plongeon arctique</title></path><path fill="#f7e9bd" display="" d="M229.1034949461467,192.1264911548143A299,299,0,0,1,206.13290088529266,216.5876893376309L157.01520034686638,164.28265081874414A227.25,227.25,0,0,0,173.81754253793437,146.38997372113084Z"><title>Plongeon imbrin</title></path><path fill="#d4debe" display="" d="M203.21711106880264,219.32579822914116A299,299,0,0,1,177.36184593799257,240.7151337275407L135.1870127483354,182.6664558264089A227.25,227.25,0,0,0,154.09941053037636,167.0207597102544Z"><title>Puffin des Anglais</title></path><path fill="#d4debe" display="" d="M174.1258719538857,243.06620644651323A299,299,0,0,1,145.7936887294193,261.0463566623162L111.22684520195627,198.16950170603965A227.25,227.25,0,0,0,131.95103876422854,185.01752854538148Z"><title>Tadorne de Belon</title></path><path fill="#d4debe" display="" d="M142.28856382050205,262.9733153875102A299,299,0,0,1,111.92627795665499,277.2607226109923L85.51256386304561,210.54729616304397A227.25,227.25,0,0,0,107.72172029303906,200.09646043123365Z"><title>Cygne chanteur</title></path><path fill="#d4debe" display="" d="M108.20728003660112,278.73317805220205A299,299,0,0,1,76.29372291899668,289.1025213365656L58.44969830928514,219.60463398469886A227.25,227.25,0,0,0,81.79356594299176,212.01975160425374Z"><title>Cygne de Bewick</title></path><path fill="#d4debe" display="" d="M72.41950280662707,290.097251991881A299,299,0,0,1,39.457970295244834,296.3850005991861L30.465046097029926,225.19867554296547A227.25,227.25,0,0,0,54.57547819691558,220.5993646400143Z"><title>Érismature à tête blanche</title></path><path fill="#d4debe" display="" d="M35.48962675607851,296.88631897194966A299,299,0,0,1,1.999941908888064,298.99331135054024L1.9999419088881385,227.24119946075157A227.25,227.25,0,0,0,26.496702557863625,225.69999391572898Z"><title>Fuligule milouinan</title></path><path fill="#d4debe" display="" d="M-1.9999419088888237,298.9933113505402A299,299,0,0,1,-35.48962675607926,296.88631897194955L-26.496702557864197,225.69999391572892A227.25,227.25,0,0,0,-1.999941908888716,227.24119946075155Z"><title>Fuligule nyroca</title></path><path fill="#d4debe" display="" d="M-39.45797029524559,296.38500059918607A299,299,0,0,1,-72.4195028066278,290.09725199188085L-54.575478196916144,220.59936464001416A227.25,227.25,0,0,0,-30.46504609703049,225.19867554296542Z"><title>Garrot à oeil d'or</title></path><path fill="#d4debe" display="" d="M-76.2937229189974,289.1025213365654A299,299,0,0,1,-108.20728003660182,278.7331780522018L-81.7935659429923,212.01975160425354A227.25,227.25,0,0,0,-58.44969830928571,219.60463398469872Z"><title>Harle huppé</title></path><path fill="#d4debe" display="" d="M-111.92627795665568,277.260722610992A299,299,0,0,1,-142.28856382050273,262.97331538750984L-107.72172029303957,200.09646043123337A227.25,227.25,0,0,0,-85.51256386304614,210.54729616304374Z"><title>Oie des moissons</title></path><path fill="#d4debe" display="" d="M-145.79368872941996,261.0463566623158A299,299,0,0,1,-174.12587195388633,243.0662064465128L-131.95103876422903,185.01752854538114A227.25,227.25,0,0,0,-111.22684520195678,198.16950170603937Z"><title>Oie rieuse</title></path><path fill="#d4debe" display="" d="M-177.3618459379932,240.7151337275402A299,299,0,0,1,-203.2171110688032,219.32579822914064L-154.0994105303768,167.020759710254A227.25,227.25,0,0,0,-135.18701274833586,182.66645582640857Z"><title>Fuligule milouin</title></path><path fill="#d4debe" display="" d="M-206.1329008852931,216.58768933763045A299,299,0,0,1,-229.10349494614704,192.1264911548139L-173.81754253793463,146.38997372113053A227.25,227.25,0,0,0,-157.0152003468667,164.28265081874383Z"><title>Harle bièvre</title></path><path fill="#d4debe" display="" d="M-231.6531168478056,189.04452770365222A299,299,0,0,1,-251.37677984839618,161.89723454417296L-190.79446806610238,123.45053039729329A227.25,227.25,0,0,0,-176.36716443959318,143.3080102699689Z"><title>Oie cendrée</title></path><path fill="#d4debe" display="" d="M-253.52002477476393,158.52002093806033A299,299,0,0,1,-269.68570276722664,129.11476183205033L-204.76245085777708,98.56419846331846A227.25,227.25,0,0,0,-192.93771299247013,120.07331679118067Z"><title>Sarcelle d'été</title></path><path fill="#d4debe" display="" d="M-271.38877046550226,125.49555874700476A299,299,0,0,1,-283.741521050988,94.29607219641619L-215.5012074802655,72.12345024017893A227.25,227.25,0,0,0,-206.4655185560527,94.94499537827289Z"><title>Sarcelle d'hiver</title></path><path fill="#d4debe" display="" d="M-284.97755312620626,90.49195662709644A299,299,0,0,1,-293.32256604880644,57.99027717250192L-222.84138132660865,44.54527212229137A227.25,227.25,0,0,0,-216.73723955548377,68.31933467085909Z"><title>Goéland d'Audouin</title></path><path fill="#d4debe" display="" d="M-294.0720695367716,54.06124229390369A299,299,0,0,1,-298.2777389576277,20.76994083586436L-226.66721347044265,16.264588452979172A227.25,227.25,0,0,0,-223.59088481457385,40.61623724369318Z"><title>Goéland marin</title></path><path fill="#d4debe" display="" d="M-298.52889374060277,16.777949875115308A299,299,0,0,1,-298.52889374060277,-16.777949875116033L-226.91836825341773,-12.272597492230702A227.25,227.25,0,0,0,-226.91836825341773,12.272597492230151Z"><title>Mouette rieuse</title></path><path fill="#bbcbcc" display="" d="M-298.27773895762766,-20.769940835864816A299,299,0,0,1,-294.07206953677155,-54.06124229390414L-223.59088481457377,-40.61623724369352A227.25,227.25,0,0,0,-226.66721347044262,-16.26458845297952Z"><title>Bernache nonnette</title></path><path fill="#bbcbcc" display="" d="M-293.3225660488063,-57.99027717250237A299,299,0,0,1,-284.9775531262061,-90.49195662709687L-216.73723955548365,-68.31933467085942A227.25,227.25,0,0,0,-222.8413813266086,-44.54527212229171Z"><title>Eider à duvet</title></path><path fill="#bbcbcc" display="" d="M-283.74152105098767,-94.29607219641711A299,299,0,0,1,-271.38877046550186,-125.49555874700566L-206.4655185560524,-94.94499537827357A227.25,227.25,0,0,0,-215.50120748026526,-72.12345024017964Z"><title>Macreuse brune</title></path><path fill="#bbcbcc" display="" d="M-269.68570276722636,-129.11476183205102A299,299,0,0,1,-253.52002477476353,-158.52002093806092L-192.93771299246984,-120.07331679118113A227.25,227.25,0,0,0,-204.76245085777686,-98.56419846331895Z"><title>Grèbe à cou noir</title></path><path fill="#bbcbcc" display="" d="M-251.37677984839578,-161.89723454417359A299,299,0,0,1,-231.6531168478051,-189.04452770365276L-176.3671644395928,-143.30801026996932A227.25,227.25,0,0,0,-190.7944680661021,-123.45053039729375Z"><title>Grèbe castagneux</title></path><path fill="#bbcbcc" display="" d="M-229.10349494614655,-192.12649115481446A299,299,0,0,1,-206.13290088529249,-216.58768933763105L-157.0152003468662,-164.28265081874426A227.25,227.25,0,0,0,-173.8175425379343,-146.38997372113093Z"><title>Grèbe jougris</title></path><path fill="#bbcbcc" display="" d="M-203.21711106880255,-219.32579822914124A299,299,0,0,1,-177.3618459379926,-240.71513372754066L-135.1870127483354,-182.6664558264089A227.25,227.25,0,0,0,-154.0994105303763,-167.02075971025442Z"><title>Grèbe esclavon</title></path><path fill="#bbcbcc" display="" d="M-174.12587195388573,-243.0662064465132A299,299,0,0,1,-145.79368872941956,-261.04635666231604L-111.22684520195648,-198.16950170603957A227.25,227.25,0,0,0,-131.9510387642286,-185.01752854538145Z"><title>Cormoran huppé</title></path><path fill="#bbcbcc" display="" d="M-142.2885638205021,-262.9733153875102A299,299,0,0,1,-111.92627795665527,-277.26072261099216L-85.51256386304583,-210.54729616304388A227.25,227.25,0,0,0,-107.72172029303908,-200.09646043123365Z"><title>Grand Cormoran</title></path><path fill="#8a9377" display="" d="M-108.20728003660115,-278.73317805220205A299,299,0,0,1,-76.29372291899722,-289.1025213365654L-58.44969830928556,-219.60463398469872A227.25,227.25,0,0,0,-81.79356594299179,-212.0197516042537Z"><title>Guifette moustac</title></path><path fill="#8a9377" display="" d="M-72.41950280662736,-290.09725199188097A299,299,0,0,1,-39.45797029524566,-296.38500059918607L-30.465046097030548,-225.19867554296542A227.25,227.25,0,0,0,-54.5754781969158,-220.59936464001424Z"><title>Guifette noire</title></path><path fill="#8a9377" display="" d="M-35.489626756078806,-296.88631897194966A299,299,0,0,1,-1.9999419088886314,-298.9933113505402L-1.99994190888857,-227.24119946075155A227.25,227.25,0,0,0,-26.496702557863856,-225.69999391572895Z"><title>Petit pingouin</title></path></g><g id="labels" transform="translate(331.5,325)" text-anchor="middle"><text transform="rotate(90) translate(37.875,0) rotate(180)"><tspan x="0" y="4" style="font-family: Arial, sans-serif; font-size: 10px; fill: black; font-weight: bold;"/></text><text transform="rotate(-21.599999999999994) translate(113.625,0) rotate(0)"><tspan x="0" y="4" style="font-family: Arial, sans-serif; font-size: 10px; fill: black; font-weight: bold;">Vol battu</tspan></text><text transform="rotate(115.20000000000002) translate(113.625,0) rotate(180)"><tspan x="0" y="4" style="font-family: Arial, sans-serif; font-size: 10px; fill: black; font-weight: bold;">Vol battu, Vol plané</tspan></text><text transform="rotate(216) translate(113.625,0) rotate(180)"><tspan x="0" y="4" style="font-family: Arial, sans-serif; font-size: 10px; fill: black; font-weight: bold;">Vol battu, Vol plané, Nage</tspan></text><text transform="rotate(259.2) translate(113.625,0) rotate(180)"><tspan x="0" y="4" style="font-family: Arial, sans-serif; font-size: 10px; fill: black; font-weight: bold;">Vol battu, Nage</tspan></text><text transform="rotate(-72) translate(189.375,0) rotate(0)"><tspan x="0" y="4" style="font-family: Arial, sans-serif; font-size: 10px; fill: black; font-weight: bold;">Laridae</tspan></text><text transform="rotate(-36) translate(189.375,0) rotate(0)"><tspan x="0" y="4" style="font-family: Arial, sans-serif; font-size: 10px; fill: black; font-weight: bold;">Anatidae</tspan></text><text transform="rotate(-14.399999999999991) translate(189.375,0) rotate(0)"><tspan x="0" y="4" style="font-family: Arial, sans-serif; font-size: 10px; fill: black; font-weight: bold;">Sulidae</tspan></text><text transform="rotate(-3.5999999999999943) translate(189.375,0) rotate(0)"><tspan x="0" y="4" style="font-family: Arial, sans-serif; font-size: 10px; fill: black; font-weight: bold;">Alcidae</tspan></text><text transform="rotate(7.200000000000003) translate(189.375,0) rotate(0)"><tspan x="0" y="4" style="font-family: Arial, sans-serif; font-size: 10px; fill: black; font-weight: bold;">Hydrobatidae</tspan></text><text transform="rotate(21.599999999999994) translate(189.375,0) rotate(0)"><tspan x="0" y="4" style="font-family: Arial, sans-serif; font-size: 10px; fill: black; font-weight: bold;">Procellariidae</tspan></text><text transform="rotate(39.599999999999966) translate(189.375,0) rotate(0)"><tspan x="0" y="4" style="font-family: Arial, sans-serif; font-size: 10px; fill: black; font-weight: bold;">Gaviidae</tspan></text><text transform="rotate(50.400000000000006) translate(189.375,0) rotate(0)"><tspan x="0" y="4" style="font-family: Arial, sans-serif; font-size: 10px; fill: black; font-weight: bold;">Procellariidae</tspan></text><text transform="rotate(108.00000000000006) translate(189.375,0) rotate(180)"><tspan x="0" y="4" style="font-family: Arial, sans-serif; font-size: 10px; fill: black; font-weight: bold;">Anatidae</tspan></text><text transform="rotate(172.80000000000007) translate(189.375,0) rotate(180)"><tspan x="0" y="4" style="font-family: Arial, sans-serif; font-size: 10px; fill: black; font-weight: bold;">Laridae</tspan></text><text transform="rotate(194.40000000000003) translate(189.375,0) rotate(180)"><tspan x="0" y="4" style="font-family: Arial, sans-serif; font-size: 10px; fill: black; font-weight: bold;">Anatidae</tspan></text><text transform="rotate(219.59999999999997) translate(189.375,0) rotate(180)"><tspan x="0" y="4" style="font-family: Arial, sans-serif; font-size: 10px; fill: black; font-weight: bold;">Podicipedidae</tspan></text><text transform="rotate(241.2) translate(189.375,0) rotate(180)"><tspan x="0" y="4" style="font-family: Arial, sans-serif; font-size: 10px; fill: black; font-weight: bold;">Phalacrocoracidae</tspan></text><text transform="rotate(255.60000000000002) translate(189.375,0) rotate(180)"><tspan x="0" y="4" style="font-family: Arial, sans-serif; font-size: 10px; fill: black; font-weight: bold;">Laridae</tspan></text><text transform="rotate(266.40000000000003) translate(189.375,0) rotate(180)"><tspan x="0" y="4" style="font-family: Arial, sans-serif; font-size: 10px; fill: black; font-weight: bold;">Alcidae</tspan></text><text transform="rotate(-86.4) translate(265.125,0) rotate(0)"><tspan x="0" y="4" style="font-family: Arial, sans-serif; font-size: 10px; fill: black; font-weight: bold;">Goéland brun</tspan></text><text transform="rotate(-79.2) translate(265.125,0) rotate(0)"><tspan x="0" y="4" style="font-family: Arial, sans-serif; font-size: 10px; fill: black; font-weight: bold;">Sterne pierregarin</tspan></text><text transform="rotate(-72) translate(265.125,0) rotate(0)"><tspan x="0" y="4" style="font-family: Arial, sans-serif; font-size: 10px; fill: black; font-weight: bold;">Mouette mélanocéphale</tspan></text><text transform="rotate(-64.8) translate(265.125,0) rotate(0)"><tspan x="0" y="4" style="font-family: Arial, sans-serif; font-size: 10px; fill: black; font-weight: bold;">Sterne arctique</tspan></text><text transform="rotate(-57.599999999999994) translate(265.125,0) rotate(0)"><tspan x="0" y="4" style="font-family: Arial, sans-serif; font-size: 10px; fill: black; font-weight: bold;">Sterne de Dougall</tspan></text><text transform="rotate(-50.400000000000006) translate(265.125,0) rotate(0)"><tspan x="0" y="4" style="font-family: Arial, sans-serif; font-size: 10px; fill: black; font-weight: bold;">Bernache cravant</tspan></text><text transform="rotate(-43.20000000000001) translate(265.125,0) rotate(0)"><tspan x="0" y="4" style="font-family: Arial, sans-serif; font-size: 10px; fill: black; font-weight: bold;">Canard pilet</tspan></text><text transform="rotate(-36) translate(265.125,0) rotate(0)"><tspan x="0" y="4" style="font-family: Arial, sans-serif; font-size: 10px; fill: black; font-weight: bold;">Harelde de Miquelon</tspan></text><text transform="rotate(-28.80000000000002) translate(265.125,0) rotate(0)"><tspan x="0" y="4" style="font-family: Arial, sans-serif; font-size: 10px; fill: black; font-weight: bold;">Canard chipeau</tspan></text><text transform="rotate(-21.60000000000001) translate(265.125,0) rotate(0)"><tspan x="0" y="4" style="font-family: Arial, sans-serif; font-size: 10px; fill: black; font-weight: bold;">Canard siffleur</tspan></text><text transform="rotate(-14.399999999999991) translate(265.125,0) rotate(0)"><tspan x="0" y="4" style="font-family: Arial, sans-serif; font-size: 10px; fill: black; font-weight: bold;">Fou de Bassan</tspan></text><text transform="rotate(-7.200000000000003) translate(265.125,0) rotate(0)"><tspan x="0" y="4" style="font-family: Arial, sans-serif; font-size: 10px; fill: black; font-weight: bold;">Guillemot de Troïl</tspan></text><text transform="rotate(0) translate(265.125,0) rotate(0)"><tspan x="0" y="4" style="font-family: Arial, sans-serif; font-size: 10px; fill: black; font-weight: bold;">Macareux moine</tspan></text><text transform="rotate(7.200000000000003) translate(265.125,0) rotate(0)"><tspan x="0" y="4" style="font-family: Arial, sans-serif; font-size: 10px; fill: black; font-weight: bold;">Pétrel tempête</tspan></text><text transform="rotate(14.399999999999991) translate(265.125,0) rotate(0)"><tspan x="0" y="4" style="font-family: Arial, sans-serif; font-size: 10px; fill: black; font-weight: bold;">Pétrel fulmar</tspan></text><text transform="rotate(21.599999999999994) translate(265.125,0) rotate(0)"><tspan x="0" y="4" style="font-family: Arial, sans-serif; font-size: 10px; fill: black; font-weight: bold;">Puffin des Baléares</tspan></text><text transform="rotate(28.800000000000026) translate(265.125,0) rotate(0)"><tspan x="0" y="4" style="font-family: Arial, sans-serif; font-size: 10px; fill: black; font-weight: bold;">Puffin yelkouan</tspan></text><text transform="rotate(36) translate(265.125,0) rotate(0)"><tspan x="0" y="4" style="font-family: Arial, sans-serif; font-size: 10px; fill: black; font-weight: bold;">Plongeon arctique</tspan></text><text transform="rotate(43.19999999999999) translate(265.125,0) rotate(0)"><tspan x="0" y="4" style="font-family: Arial, sans-serif; font-size: 10px; fill: black; font-weight: bold;">Plongeon imbrin</tspan></text><text transform="rotate(50.400000000000006) translate(265.125,0) rotate(0)"><tspan x="0" y="4" style="font-family: Arial, sans-serif; font-size: 10px; fill: black; font-weight: bold;">Puffin des Anglais</tspan></text><text transform="rotate(57.60000000000005) translate(265.125,0) rotate(0)"><tspan x="0" y="4" style="font-family: Arial, sans-serif; font-size: 10px; fill: black; font-weight: bold;">Tadorne de Belon</tspan></text><text transform="rotate(64.80000000000004) translate(265.125,0) rotate(0)"><tspan x="0" y="4" style="font-family: Arial, sans-serif; font-size: 10px; fill: black; font-weight: bold;">Cygne chanteur</tspan></text><text transform="rotate(72.00000000000006) translate(265.125,0) rotate(0)"><tspan x="0" y="4" style="font-family: Arial, sans-serif; font-size: 10px; fill: black; font-weight: bold;">Cygne de Bewick</tspan></text><text transform="rotate(79.20000000000007) translate(265.125,0) rotate(0)"><tspan x="0" y="4" style="font-family: Arial, sans-serif; font-size: 10px; fill: black; font-weight: bold;">Érismature à tête blanche</tspan></text><text transform="rotate(86.40000000000006) translate(265.125,0) rotate(0)"><tspan x="0" y="4" style="font-family: Arial, sans-serif; font-size: 10px; fill: black; font-weight: bold;">Fuligule milouinan</tspan></text><text transform="rotate(93.60000000000008) translate(265.125,0) rotate(180)"><tspan x="0" y="4" style="font-family: Arial, sans-serif; font-size: 10px; fill: black; font-weight: bold;">Fuligule nyroca</tspan></text><text transform="rotate(100.8000000000001) translate(265.125,0) rotate(180)"><tspan x="0" y="4" style="font-family: Arial, sans-serif; font-size: 10px; fill: black; font-weight: bold;">Garrot à oeil d'or</tspan></text><text transform="rotate(108.00000000000009) translate(265.125,0) rotate(180)"><tspan x="0" y="4" style="font-family: Arial, sans-serif; font-size: 10px; fill: black; font-weight: bold;">Harle huppé</tspan></text><text transform="rotate(115.20000000000013) translate(265.125,0) rotate(180)"><tspan x="0" y="4" style="font-family: Arial, sans-serif; font-size: 10px; fill: black; font-weight: bold;">Oie des moissons</tspan></text><text transform="rotate(122.40000000000012) translate(265.125,0) rotate(180)"><tspan x="0" y="4" style="font-family: Arial, sans-serif; font-size: 10px; fill: black; font-weight: bold;">Oie rieuse</tspan></text><text transform="rotate(129.60000000000014) translate(265.125,0) rotate(180)"><tspan x="0" y="4" style="font-family: Arial, sans-serif; font-size: 10px; fill: black; font-weight: bold;">Fuligule milouin</tspan></text><text transform="rotate(136.80000000000015) translate(265.125,0) rotate(180)"><tspan x="0" y="4" style="font-family: Arial, sans-serif; font-size: 10px; fill: black; font-weight: bold;">Harle bièvre</tspan></text><text transform="rotate(144.0000000000001) translate(265.125,0) rotate(180)"><tspan x="0" y="4" style="font-family: Arial, sans-serif; font-size: 10px; fill: black; font-weight: bold;">Oie cendrée</tspan></text><text transform="rotate(151.20000000000016) translate(265.125,0) rotate(180)"><tspan x="0" y="4" style="font-family: Arial, sans-serif; font-size: 10px; fill: black; font-weight: bold;">Sarcelle d'été</tspan></text><text transform="rotate(158.40000000000012) translate(265.125,0) rotate(180)"><tspan x="0" y="4" style="font-family: Arial, sans-serif; font-size: 10px; fill: black; font-weight: bold;">Sarcelle d'hiver</tspan></text><text transform="rotate(165.60000000000008) translate(265.125,0) rotate(180)"><tspan x="0" y="4" style="font-family: Arial, sans-serif; font-size: 10px; fill: black; font-weight: bold;">Goéland d'Audouin</tspan></text><text transform="rotate(172.80000000000007) translate(265.125,0) rotate(180)"><tspan x="0" y="4" style="font-family: Arial, sans-serif; font-size: 10px; fill: black; font-weight: bold;">Goéland marin</tspan></text><text transform="rotate(180.0000000000001) translate(265.125,0) rotate(180)"><tspan x="0" y="4" style="font-family: Arial, sans-serif; font-size: 10px; fill: black; font-weight: bold;">Mouette rieuse</tspan></text><text transform="rotate(187.20000000000005) translate(265.125,0) rotate(180)"><tspan x="0" y="4" style="font-family: Arial, sans-serif; font-size: 10px; fill: black; font-weight: bold;">Bernache nonnette</tspan></text><text transform="rotate(194.40000000000003) translate(265.125,0) rotate(180)"><tspan x="0" y="4" style="font-family: Arial, sans-serif; font-size: 10px; fill: black; font-weight: bold;">Eider à duvet</tspan></text><text transform="rotate(201.60000000000008) translate(265.125,0) rotate(180)"><tspan x="0" y="4" style="font-family: Arial, sans-serif; font-size: 10px; fill: black; font-weight: bold;">Macreuse brune</tspan></text><text transform="rotate(208.80000000000007) translate(265.125,0) rotate(180)"><tspan x="0" y="4" style="font-family: Arial, sans-serif; font-size: 10px; fill: black; font-weight: bold;">Grèbe à cou noir</tspan></text><text transform="rotate(216) translate(265.125,0) rotate(180)"><tspan x="0" y="4" style="font-family: Arial, sans-serif; font-size: 10px; fill: black; font-weight: bold;">Grèbe castagneux</tspan></text><text transform="rotate(223.20000000000005) translate(265.125,0) rotate(180)"><tspan x="0" y="4" style="font-family: Arial, sans-serif; font-size: 10px; fill: black; font-weight: bold;">Grèbe jougris</tspan></text><text transform="rotate(230.40000000000003) translate(265.125,0) rotate(180)"><tspan x="0" y="4" style="font-family: Arial, sans-serif; font-size: 10px; fill: black; font-weight: bold;">Grèbe esclavon</tspan></text><text transform="rotate(237.59999999999997) translate(265.125,0) rotate(180)"><tspan x="0" y="4" style="font-family: Arial, sans-serif; font-size: 10px; fill: black; font-weight: bold;">Cormoran huppé</tspan></text><text transform="rotate(244.80000000000007) translate(265.125,0) rotate(180)"><tspan x="0" y="4" style="font-family: Arial, sans-serif; font-size: 10px; fill: black; font-weight: bold;">Grand Cormoran</tspan></text><text transform="rotate(252) translate(265.125,0) rotate(180)"><tspan x="0" y="4" style="font-family: Arial, sans-serif; font-size: 10px; fill: black; font-weight: bold;">Guifette moustac</tspan></text><text transform="rotate(259.19999999999993) translate(265.125,0) rotate(180)"><tspan x="0" y="4" style="font-family: Arial, sans-serif; font-size: 10px; fill: black; font-weight: bold;">Guifette noire</tspan></text><text transform="rotate(266.40000000000003) translate(265.125,0) rotate(180)"><tspan x="0" y="4" style="font-family: Arial, sans-serif; font-size: 10px; fill: black; font-weight: bold;">Petit pingouin</tspan></text></g><g id="legend" transform="translate(663,34)"><g transform="translate(5,0)"><g class="legendColor" transform="translate(0,0)"><g class="legendCells" transform="translate(0,31.100000381469727)"><g class="cell" transform="translate(0, 0)"><rect class="swatch" height="15" width="15" style="fill: rgb(247, 233, 189);"/><text class="label" transform="translate( 20, 12.5)" font-family="&quot;Arial&quot;, sans-serif" font-size="10px"><tspan x="0" dy="0em">Vol battu</tspan></text></g><g class="cell" transform="translate(0, 20.5)"><rect class="swatch" height="15" width="15" style="fill: rgb(138, 147, 119);"/><text class="label" transform="translate( 20, 12.5)" font-family="&quot;Arial&quot;, sans-serif" font-size="10px"><tspan x="0" dy="0em">Vol battu, Nage</tspan></text></g><g class="cell" transform="translate(0, 41)"><rect class="swatch" height="15" width="15" style="fill: rgb(212, 222, 190);"/><text class="label" transform="translate( 20, 12.5)" font-family="&quot;Arial&quot;, sans-serif" font-size="10px"><tspan x="0" dy="0em">Vol battu, Vol plané</tspan></text></g><g class="cell" transform="translate(0, 61.5)"><rect class="swatch" height="15" width="15" style="fill: rgb(187, 203, 204);"/><text class="label" transform="translate( 20, 12.5)" font-family="&quot;Arial&quot;, sans-serif" font-size="10px"><tspan x="0" dy="0em">Vol battu, Vol plané, Nage</tspan></text></g></g><text class="legendTitle" font-family="&quot;Arial&quot;, sans-serif" font-size="12px" font-weight="bold"><tspan x="0" dy="0em">Types de locomotion principal</tspan><tspan x="0" dy="1.2em">(vol battu, vol plané, nage)</tspan></text></g></g></g></svg>